#N canvas 398 190 1258 654 10;
#X obj 2 210 sendOSC;
#X obj 5 61 loadbang;
#X msg 21 132 disconnect;
#X floatatom 2 242 5 0 0 0 - - -;
#X floatatom 49 241 5 0 0 0 - - -;
#X obj 30 154 r osc;
#X msg 5 84 connect localhost 6969;
#X obj 192 199 s osc;
#X floatatom 192 153 5 0 0 0 - - -;
#X obj 292 199 s osc;
#X floatatom 292 153 5 0 0 0 - - -;
#X obj 394 199 s osc;
#X floatatom 394 155 5 0 0 0 - - -;
#X obj 292 66 vsl 15 80 0 359 0 0 empty empty empty 0 -9 0 10 -262144
-1 -1 1000 1;
#X obj 394 67 vsl 15 80 0 359 0 0 empty empty empty 0 -9 0 10 -262144
-1 -1 0 1;
#X obj 192 66 vsl 15 80 0 359 0 0 empty empty empty 0 -9 0 10 -262144
-1 -1 3200 1;
#X msg 11 108 connect 127.0.0.1 6161;
#X text 4 35 SEND TO UNITY;
#X obj 394 12 r z01;
#X obj 503 238 s osc;
#X floatatom 503 196 5 0 0 0 - - -;
#X obj 603 238 s osc;
#X floatatom 603 196 5 0 0 0 - - -;
#X obj 705 238 s osc;
#X obj 20 482 s osc;
#X floatatom 20 353 4 0 0 0 - - -;
#X floatatom 64 353 4 0 0 0 - - -;
#X obj 20 433 pack 0 0 0;
#X floatatom 107 354 4 0 0 0 - - -;
#X msg 20 459 send /CubeXYZ \$1 \$2 \$3;
#X obj 20 330 r x02;
#X obj 107 332 r x02;
#X obj 64 331 r y02;
#X floatatom 503 151 5 0 0 0 - - -;
#X obj 503 124 line;
#X msg 548 77 0;
#X obj 503 77 t b b;
#X obj 335 407 -;
#X obj 335 472 /;
#X obj 301 304 tgl 15 0 empty empty empty 17 7 0 10 -262144 -1 -1 0
1;
#X obj 335 429 abs;
#X obj 301 382 t a a a a;
#X obj 313 405 print next_target;
#X obj 301 601 s osc;
#X floatatom 301 538 5 0 0 0 - - -;
#X obj 461 601 s osc;
#X floatatom 461 538 5 0 0 0 - - -;
#X msg 461 579 send /CubeY \$1;
#X msg 301 579 send /CubeX \$1;
#X obj 590 601 s osc;
#X floatatom 590 538 5 0 0 0 - - -;
#X msg 590 579 send /CubeZ \$1;
#X text 19 313 numbers from PD_soundpatch02.pd;
#X floatatom 603 152 5 0 0 0 - - -;
#X obj 603 124 line;
#X msg 648 77 0;
#X obj 603 77 t b b;
#X floatatom 705 151 5 0 0 0 - - -;
#X msg 750 77 0;
#X obj 705 77 t b b;
#X floatatom 705 198 5 0 0 0 - - -;
#X msg 473 5 0;
#X text 19 287 POSITION OF CUBE v.3;
#X msg 244 84 0;
#X obj 611 -9 tgl 15 0 empty empty empty 17 7 0 10 -262144 -1 -1 3000
3000;
#X obj 503 35 metro 3000;
#X obj 705 33 metro 3000;
#X msg 503 99 359 3000;
#X msg 603 99 359 3000;
#X msg 705 99 359 3000;
#X msg 272 452 0;
#X obj 338 309 hsl 80 15 50 2000 0 0 empty empty empty -2 -8 0 10 -262144
-1 -1 2633 1;
#X obj 495 407 -;
#X obj 495 472 /;
#X obj 495 429 abs;
#X obj 461 382 t a a a a;
#X obj 461 515 line 0 100;
#X obj 461 360 random 720;
#X obj 624 407 -;
#X obj 624 472 /;
#X obj 590 303 tgl 15 0 empty empty empty 17 7 0 10 -262144 -1 -1 0
1;
#X obj 624 429 abs;
#X obj 590 382 t a a a a;
#X msg 624 450 500 \$1;
#X msg 590 494 \$1 500;
#X obj 590 515 line 0 100;
#X obj 590 360 random 720;
#X floatatom 815 480 0 0 0 0 - - -;
#X obj 815 557 s osc;
#X obj 720 555 s osc;
#X msg 720 534 send /CubeX \$1;
#X floatatom 720 468 5 0 0 0 - - -;
#X msg 765 393 0;
#X obj 720 393 t b b;
#X msg 893 315 0;
#X obj 720 321 tgl 15 0 empty empty empty 17 7 0 10 -262144 -1 -1 0
1;
#X obj 755 15 hsl 64 15 100 3000 0 0 empty empty empty -2 -8 0 10 -262144
-1 -1 2600 1;
#X obj 705 172 * 1;
#X obj 735 172 hsl 80 15 1 7 0 0 empty empty empty -2 -8 0 10 -262144
-1 -1 0 1;
#X text 745 151 speed x 1 - 7;
#X obj 705 55 bng 15 250 50 0 empty empty empty 17 7 0 10 -262144 -1
-1;
#X obj 705 124 line;
#X obj 603 172 * 1;
#X obj 559 8 tgl 15 0 empty empty empty 17 7 0 10 -262144 -1 -1 3000
3000;
#X obj 603 35 metro 3000;
#X obj 603 57 bng 15 250 50 0 empty empty empty 17 7 0 10 -262144 -1
-1;
#X obj 720 440 line;
#X msg 815 534 send /CubeY \$1;
#X obj 720 373 bng 15 250 50 0 empty empty empty 17 7 0 10 -262144
-1 -1;
#X obj 503 172 * 1;
#X obj 672 7 tgl 15 0 empty empty empty 17 7 0 10 -262144 -1 -1 3000
3000;
#X obj 503 57 bng 15 250 50 0 empty empty empty 17 7 0 10 -262144 -1
-1;
#X obj 20 389 / 1;
#X obj 64 389 / 1;
#X obj 107 389 / 1;
#X text 837 61 p.x = x \; p.y = Mathf.Sin(pi * (x + t)) \; p.z = z
\; transform.Rotate (0f \, 30f * Time.deltaTime \, 30f * Time.deltaTime)
\;;
#X text 471 -12 restart;
#X obj 910 483 hsl 80 15 1 7 0 0 empty empty empty -2 -8 0 10 -262144
-1 -1 0 1;
#X msg 1079 21 \; pd dsp 0;
#X msg 988 21 \; pd dsp 1;
#X text 986 1 audio on;
#X text 1078 2 audio off;
#X obj 239 610 s synth01;
#X obj 344 608 s synth02;
#X obj 507 607 s synth03;
#X text 213 448 restart>;
#X obj 192 40 * 50;
#X obj 292 38 * 50;
#X obj 394 40 * 50;
#X obj 461 303 tgl 15 0 empty empty empty 17 7 0 10 -262144 -1 -1 0
1;
#X obj 720 351 metro 3000;
#X obj 754 313 hsl 64 15 100 3000 0 0 empty empty empty -2 -8 0 10
-262144 -1 -1 6300 1;
#X msg 720 415 720 3000;
#X obj 815 508 * 1;
#X obj 816 458 expr abs($f1);
#X obj 794 431 expr sqrt(($f1 * $f1) - ($f2*$f2));
#X floatatom 974 373 5 0 0 0 - - -;
#X msg 944 370 10;
#X obj 944 348 loadbang;
#X obj 1013 557 s osc;
#X msg 1013 537 send /CubeZ \$1;
#X floatatom 1013 470 5 0 0 0 - - -;
#X msg 1058 396 0;
#X obj 1013 396 t b b;
#X floatatom 1013 517 5 0 0 0 - - -;
#X obj 1013 352 metro 3000;
#X obj 1013 375 bng 15 250 50 0 empty empty empty 17 7 0 10 -262144
-1 -1;
#X obj 1013 443 line;
#X msg 1013 418 720 3000;
#X obj 720 492 / 1;
#X obj 1013 491 / 1;
#X text 913 465 speed wolniej;
#X obj 301 559 / 1;
#X obj 461 558 / 1;
#X obj 590 558 / 1;
#X obj 211 537 hsl 80 15 1 15 0 0 empty empty empty -2 -8 0 10 -262144
-1 -1 0 1;
#X obj 590 334 metro 3000;
#X obj 301 360 random 720;
#X obj 301 334 metro 1000;
#X msg 335 450 720 \$1;
#X msg 301 494 \$1 720;
#X obj 301 515 line 0 500;
#X obj 369 288 loadbang;
#X text 192 -13 M.1;
#X text 568 -18 M.2;
#X text 264 268 M4. RANDOM WALKS ROTATIONS!;
#X text 57 580 send to uSoundSynth01.pd;
#X obj 461 334 metro 1000;
#X msg 495 450 720 \$1;
#X msg 461 494 \$1 720;
#X msg 335 289 700;
#X msg 751 292 3000;
#X obj 786 292 loadbang;
#X text 1 -13 ROTATIONS QUATERNION OSC;
#X text 834 315 restart>;
#X text 214 519 speed wolniej;
#X obj 126 17 r x01;
#X obj 225 5 r y01;
#X msg 192 176 send /CapsuleX \$1;
#X msg 292 176 send /CapsuleY \$1;
#X msg 396 177 send /CapsuleZ \$1;
#X msg 504 218 send /Object_3X \$1;
#X msg 603 218 send /Object_3Y \$1;
#X msg 705 218 send /Object_3eZ \$1;
#X connect 0 0 3 0;
#X connect 0 1 4 0;
#X connect 1 0 6 0;
#X connect 2 0 0 0;
#X connect 5 0 0 0;
#X connect 6 0 0 0;
#X connect 8 0 178 0;
#X connect 10 0 179 0;
#X connect 12 0 180 0;
#X connect 13 0 10 0;
#X connect 14 0 12 0;
#X connect 15 0 8 0;
#X connect 16 0 0 0;
#X connect 18 0 128 0;
#X connect 20 0 181 0;
#X connect 22 0 182 0;
#X connect 25 0 112 0;
#X connect 26 0 113 0;
#X connect 27 0 29 0;
#X connect 28 0 114 0;
#X connect 29 0 24 0;
#X connect 30 0 25 0;
#X connect 31 0 28 0;
#X connect 32 0 26 0;
#X connect 33 0 109 0;
#X connect 34 0 33 0;
#X connect 35 0 34 0;
#X connect 36 0 67 0;
#X connect 36 1 35 0;
#X connect 37 0 40 0;
#X connect 38 0 161 2;
#X connect 39 0 158 0;
#X connect 40 0 159 0;
#X connect 41 0 160 0;
#X connect 41 1 37 1;
#X connect 41 2 37 0;
#X connect 44 0 122 0;
#X connect 44 0 152 0;
#X connect 46 0 123 0;
#X connect 46 0 153 0;
#X connect 47 0 45 0;
#X connect 48 0 43 0;
#X connect 50 0 124 0;
#X connect 50 0 154 0;
#X connect 51 0 49 0;
#X connect 53 0 102 0;
#X connect 54 0 53 0;
#X connect 55 0 54 0;
#X connect 56 0 68 0;
#X connect 56 1 55 0;
#X connect 57 0 97 0;
#X connect 58 0 101 0;
#X connect 59 0 69 0;
#X connect 59 1 58 0;
#X connect 60 0 183 0;
#X connect 61 0 34 0;
#X connect 61 0 54 0;
#X connect 61 0 101 0;
#X connect 63 0 13 0;
#X connect 63 0 15 0;
#X connect 63 0 14 0;
#X connect 64 0 103 0;
#X connect 64 0 110 0;
#X connect 65 0 111 0;
#X connect 66 0 100 0;
#X connect 67 0 34 0;
#X connect 68 0 54 0;
#X connect 69 0 101 0;
#X connect 70 0 44 0;
#X connect 70 0 46 0;
#X connect 70 0 50 0;
#X connect 71 0 156 1;
#X connect 71 0 158 1;
#X connect 71 0 167 1;
#X connect 72 0 74 0;
#X connect 73 0 76 2;
#X connect 74 0 168 0;
#X connect 75 0 169 0;
#X connect 75 1 72 1;
#X connect 75 2 72 0;
#X connect 76 0 46 0;
#X connect 77 0 75 0;
#X connect 78 0 81 0;
#X connect 79 0 85 2;
#X connect 80 0 156 0;
#X connect 81 0 83 0;
#X connect 82 0 84 0;
#X connect 82 1 78 1;
#X connect 82 2 78 0;
#X connect 83 0 79 0;
#X connect 84 0 85 0;
#X connect 85 0 50 0;
#X connect 86 0 82 0;
#X connect 87 0 133 0;
#X connect 90 0 89 0;
#X connect 91 0 135 0;
#X connect 91 0 149 0;
#X connect 92 0 106 0;
#X connect 93 0 132 0;
#X connect 93 1 92 0;
#X connect 94 0 106 0;
#X connect 94 0 150 0;
#X connect 95 0 130 0;
#X connect 95 0 145 0;
#X connect 96 0 66 1;
#X connect 96 0 104 1;
#X connect 96 0 65 1;
#X connect 97 0 60 0;
#X connect 98 0 97 1;
#X connect 98 0 102 1;
#X connect 98 0 109 1;
#X connect 100 0 59 0;
#X connect 101 0 57 0;
#X connect 102 0 22 0;
#X connect 103 0 104 0;
#X connect 103 0 65 0;
#X connect 104 0 105 0;
#X connect 105 0 56 0;
#X connect 106 0 91 0;
#X connect 107 0 88 0;
#X connect 108 0 93 0;
#X connect 109 0 20 0;
#X connect 110 0 104 0;
#X connect 110 0 66 0;
#X connect 111 0 36 0;
#X connect 112 0 27 0;
#X connect 113 0 27 1;
#X connect 114 0 27 2;
#X connect 117 0 133 1;
#X connect 117 0 149 1;
#X connect 117 0 150 1;
#X connect 126 0 15 0;
#X connect 127 0 13 0;
#X connect 128 0 14 0;
#X connect 129 0 167 0;
#X connect 130 0 108 0;
#X connect 131 0 130 1;
#X connect 131 0 145 1;
#X connect 132 0 106 0;
#X connect 133 0 107 0;
#X connect 134 0 87 0;
#X connect 135 0 134 0;
#X connect 136 0 135 1;
#X connect 137 0 135 1;
#X connect 138 0 137 0;
#X connect 140 0 139 0;
#X connect 141 0 150 0;
#X connect 142 0 147 0;
#X connect 143 0 148 0;
#X connect 143 1 142 0;
#X connect 144 0 140 0;
#X connect 145 0 146 0;
#X connect 146 0 143 0;
#X connect 147 0 141 0;
#X connect 148 0 147 0;
#X connect 149 0 90 0;
#X connect 150 0 144 0;
#X connect 152 0 48 0;
#X connect 153 0 47 0;
#X connect 154 0 51 0;
#X connect 155 0 154 1;
#X connect 155 0 153 1;
#X connect 155 0 152 1;
#X connect 156 0 86 0;
#X connect 157 0 41 0;
#X connect 158 0 157 0;
#X connect 159 0 38 0;
#X connect 160 0 161 0;
#X connect 161 0 44 0;
#X connect 162 0 170 0;
#X connect 167 0 77 0;
#X connect 168 0 73 0;
#X connect 169 0 76 0;
#X connect 170 0 71 0;
#X connect 171 0 131 0;
#X connect 172 0 171 0;
#X connect 176 0 8 0;
#X connect 177 0 10 0;
#X connect 178 0 7 0;
#X connect 179 0 9 0;
#X connect 180 0 11 0;
#X connect 181 0 19 0;
#X connect 182 0 21 0;
#X connect 183 0 23 0;
