#N canvas 1310 237 1023 838 10;
#X declare -lib rmpeach;
#X floatatom 220 244 5 0 0 0 - - -;
#X floatatom 220 199 5 0 0 0 - - -;
#X obj 220 172 line;
#X msg 265 125 0;
#X obj 220 125 t b b;
#X msg 190 53 0;
#X obj 220 83 metro 3000;
#X msg 220 147 359 3000;
#X obj 276 56 tgl 15 0 empty empty empty 17 7 0 10 -262144 -1 -1 0
3000;
#X obj 220 220 * 1;
#X obj 220 105 bng 15 250 50 0 empty empty empty 17 7 0 10 -262144
-1 -1;
#X obj 427 170 -;
#X obj 427 235 /;
#X obj 393 67 tgl 15 0 empty empty empty 17 7 0 10 -262144 -1 -1 0
1;
#X obj 427 192 abs;
#X obj 393 145 t a a a a;
#X obj 405 168 print next_target;
#X floatatom 393 301 5 0 0 0 - - -;
#X obj 430 72 hsl 80 15 50 2000 0 0 empty empty empty -2 -8 0 10 -262144
-1 -1 2633 1;
#X obj 393 322 / 1;
#X obj 393 123 random 720;
#X obj 393 97 metro 1000;
#X msg 427 213 720 \$1;
#X msg 393 257 \$1 720;
#X obj 393 278 line 0 500;
#X obj 461 51 loadbang;
#X msg 427 52 700;
#X floatatom 835 500 0 0 0 0 - - -;
#X floatatom 740 488 5 0 0 0 - - -;
#X msg 785 413 0;
#X obj 740 413 t b b;
#X msg 893 398 0;
#X obj 740 341 tgl 15 0 empty empty empty 17 7 0 10 -262144 -1 -1 0
1;
#X obj 740 460 line;
#X obj 740 393 bng 15 250 50 0 empty empty empty 17 7 0 10 -262144
-1 -1;
#X obj 930 503 hsl 80 15 1 7 0 0 empty empty empty -2 -8 0 10 -262144
-1 -1 0 1;
#X obj 774 333 hsl 64 15 100 30000 0 0 empty empty empty -2 -8 0 10
-262144 -1 -1 6300 1;
#X obj 836 478 expr abs($f1);
#X obj 814 451 expr sqrt(($f1 * $f1) - ($f2*$f2));
#X obj 806 312 loadbang;
#X text 834 398 restart>;
#X obj 835 528 / 1;
#X floatatom 740 536 5 0 0 0 - - -;
#X floatatom 887 537 5 0 0 0 - - -;
#X obj 578 128 hsl 254 15 0 127 0 0 empty empty empty -2 -8 0 10 -262144
-1 -1 25300 1;
#X obj 586 97 line;
#X floatatom 576 150 5 0 0 0 - - -;
#X obj 577 183 int;
#X obj 865 102 line;
#X obj 221 266 / 3.14;
#X obj 587 352 makenote 100 500;
#X obj 588 396 noteout 1;
#X floatatom 725 662 5 0 0 0 - - -;
#X obj 725 628 int;
#X obj 727 605 / 3.14;
#X floatatom 880 637 5 0 0 0 - - -;
#X obj 880 603 int;
#X obj 882 580 / 3.14;
#X obj 12 220 sendOSC;
#X obj 15 71 loadbang;
#X msg 31 142 disconnect;
#X floatatom 12 252 5 0 0 0 - - -;
#X floatatom 59 251 5 0 0 0 - - -;
#X obj 40 164 r osc;
#X msg 15 94 connect localhost 6969;
#X msg 21 118 connect 127.0.0.1 6161;
#X text 14 45 SEND TO UNITY;
#X obj 83 21 import rmpeach;
#X obj 221 333 s osc;
#X msg 221 310 send /CubeX \$1;
#X floatatom 221 287 5 0 0 0 - - -;
#X floatatom 274 236 5 0 0 0 - - -;
#X obj 389 409 s osc;
#X msg 389 386 send /CubeX \$1;
#X floatatom 389 363 5 0 0 0 - - -;
#X obj 578 305 s osc;
#X msg 578 282 send /CubeX \$1;
#X floatatom 578 219 5 0 0 0 - - -;
#X msg 287 257 1;
#X msg 586 74 0 \, 359 5000;
#X obj 574 738 s osc;
#X msg 574 715 send /CubeX \$1;
#X obj 841 767 s osc;
#X msg 841 744 send /CubeX \$1;
#X msg 865 79 0 \, 359 1500;
#X obj 966 144 loadbang;
#X obj 584 51 bng 15 250 50 0 empty empty empty 17 7 0 10 -262144 -1
-1;
#X obj 581 12 tgl 15 0 empty empty empty 17 7 0 10 -262144 -1 -1 0
1;
#X obj 583 30 metro 2000;
#X obj 726 84 line;
#X obj 726 38 bng 15 250 50 0 empty empty empty 17 7 0 10 -262144 -1
-1;
#X obj 723 -1 tgl 15 0 empty empty empty 17 7 0 10 -262144 -1 -1 0
1;
#X msg 726 61 0 \, 359 50000;
#X obj 725 17 metro 20000;
#X text 632 13 normal;
#X obj 865 61 bng 15 250 50 0 empty empty empty 17 7 0 10 -262144 -1
-1;
#X obj 862 22 tgl 15 0 empty empty empty 17 7 0 10 -262144 -1 -1 0
1;
#X obj 864 40 metro 1500;
#X obj 578 257 / 1;
#X floatatom 625 237 5 0 0 0 - - -;
#X msg 664 216 1;
#X text 946 38 v.quick;
#X floatatom 467 312 5 0 0 0 - - -;
#X text 730 -21 VERY SLOW!;
#X obj 670 238 hsl 128 15 0 127 0 0 empty empty empty -2 -8 0 10 -262144
-1 -1 5900 1;
#X obj 740 371 metro 30000;
#X msg 740 435 7200 30000;
#X msg 771 312 30000;
#X obj 619 506 hsl 80 15 1 127 0 0 empty empty empty -2 -8 0 10 -262144
-1 -1 0 1;
#X floatatom 621 546 5 0 0 0 - - -;
#X obj 740 512 / 10;
#X obj 851 243 line;
#X obj 851 197 bng 15 250 50 0 empty empty empty 17 7 0 10 -262144
-1 -1;
#X obj 848 158 tgl 15 0 empty empty empty 17 7 0 10 -262144 -1 -1 0
1;
#X obj 850 176 metro 10000;
#X msg 851 220 0 \, 359 20000;
#X connect 0 0 49 0;
#X connect 1 0 9 0;
#X connect 2 0 1 0;
#X connect 3 0 2 0;
#X connect 4 0 7 0;
#X connect 4 1 3 0;
#X connect 5 0 2 0;
#X connect 6 0 10 0;
#X connect 7 0 2 0;
#X connect 8 0 6 0;
#X connect 9 0 0 0;
#X connect 10 0 4 0;
#X connect 11 0 14 0;
#X connect 12 0 24 2;
#X connect 13 0 21 0;
#X connect 14 0 22 0;
#X connect 15 0 23 0;
#X connect 15 1 11 1;
#X connect 15 2 11 0;
#X connect 17 0 19 0;
#X connect 18 0 21 1;
#X connect 19 0 74 0;
#X connect 20 0 15 0;
#X connect 21 0 20 0;
#X connect 22 0 12 0;
#X connect 23 0 24 0;
#X connect 24 0 17 0;
#X connect 25 0 26 0;
#X connect 26 0 18 0;
#X connect 27 0 41 0;
#X connect 28 0 38 0;
#X connect 28 0 110 0;
#X connect 29 0 33 0;
#X connect 30 0 106 0;
#X connect 30 1 29 0;
#X connect 31 0 33 0;
#X connect 32 0 105 0;
#X connect 33 0 28 0;
#X connect 34 0 30 0;
#X connect 35 0 41 1;
#X connect 36 0 105 1;
#X connect 37 0 27 0;
#X connect 38 0 37 0;
#X connect 39 0 107 0;
#X connect 41 0 43 0;
#X connect 42 0 54 0;
#X connect 43 0 57 0;
#X connect 44 0 46 0;
#X connect 45 0 44 0;
#X connect 46 0 47 0;
#X connect 47 0 77 0;
#X connect 48 0 44 0;
#X connect 49 0 70 0;
#X connect 50 0 51 0;
#X connect 50 1 51 1;
#X connect 52 0 81 0;
#X connect 53 0 52 0;
#X connect 54 0 53 0;
#X connect 56 0 55 0;
#X connect 57 0 56 0;
#X connect 58 0 61 0;
#X connect 58 1 62 0;
#X connect 59 0 64 0;
#X connect 60 0 58 0;
#X connect 63 0 58 0;
#X connect 64 0 58 0;
#X connect 65 0 58 0;
#X connect 69 0 68 0;
#X connect 70 0 69 0;
#X connect 71 0 49 1;
#X connect 73 0 72 0;
#X connect 74 0 73 0;
#X connect 76 0 75 0;
#X connect 77 0 98 0;
#X connect 78 0 49 1;
#X connect 79 0 45 0;
#X connect 81 0 80 0;
#X connect 83 0 82 0;
#X connect 84 0 48 0;
#X connect 86 0 79 0;
#X connect 87 0 88 0;
#X connect 88 0 86 0;
#X connect 89 0 44 0;
#X connect 90 0 92 0;
#X connect 91 0 93 0;
#X connect 92 0 89 0;
#X connect 93 0 90 0;
#X connect 95 0 84 0;
#X connect 96 0 97 0;
#X connect 97 0 95 0;
#X connect 98 0 76 0;
#X connect 99 0 98 1;
#X connect 100 0 99 0;
#X connect 102 0 19 1;
#X connect 104 0 99 0;
#X connect 105 0 34 0;
#X connect 106 0 33 0;
#X connect 107 0 36 0;
#X connect 108 0 109 0;
#X connect 108 0 110 1;
#X connect 110 0 42 0;
#X connect 111 0 44 0;
#X connect 112 0 115 0;
#X connect 113 0 114 0;
#X connect 114 0 112 0;
#X connect 115 0 111 0;
